<svg width="200" height="26" viewBox="0 0 200 26" fill="none" xmlns="http://www.w3.org/2000/svg">
<path d="M45.4315 7.39754C45.4315 7.60315 45.4258 7.81447 45.4144 8.0315C45.4144 8.23711 45.3915 8.43701 45.3458 8.63119C45.323 8.73399 45.2716 8.84822 45.1916 8.97387C45.1117 9.0881 45.0146 9.20232 44.9004 9.31655C44.7976 9.41935 44.6833 9.51074 44.5577 9.59069C44.432 9.65923 44.3178 9.6935 44.215 9.6935C44.0437 9.6935 43.9351 9.62496 43.8895 9.48789C43.8438 9.35082 43.8095 9.20232 43.7867 9.04241C43.7752 8.88249 43.741 8.73399 43.6838 8.59692C43.6382 8.45985 43.5239 8.39131 43.3412 8.39131C43.2841 8.39131 43.2327 8.40274 43.187 8.42558C43.1527 8.44843 43.107 8.45985 43.0499 8.45985C43.027 8.45985 43.0042 8.39131 42.9814 8.25424C42.9585 8.11717 42.93 7.95154 42.8957 7.75736C42.8614 7.56317 42.8214 7.36899 42.7757 7.1748C42.7301 6.96919 42.6787 6.79785 42.6215 6.66078C42.5187 6.44375 42.4102 6.22101 42.296 5.99255C42.1932 5.75268 42.1418 5.50138 42.1418 5.23866C42.1418 5.0559 42.1761 4.90169 42.2446 4.77604C42.3131 4.63897 42.3874 4.51332 42.4673 4.39909C42.5473 4.28487 42.6215 4.17064 42.6901 4.05641C42.7586 3.94219 42.7929 3.80511 42.7929 3.6452C42.7929 3.41674 42.7186 3.21685 42.5701 3.04551C42.4216 2.87417 42.2332 2.73709 42.0047 2.63429C41.7877 2.52006 41.5535 2.44011 41.3022 2.39441C41.0623 2.3373 40.851 2.30874 40.6683 2.30874C40.3599 2.30874 40.0572 2.34872 39.7602 2.42868C39.4746 2.49722 39.1833 2.58289 38.8863 2.68569C38.6008 2.7885 38.3152 2.89701 38.0296 3.01124C37.7441 3.12547 37.4585 3.22256 37.1729 3.30252C37.23 3.46243 37.2643 3.62806 37.2757 3.7994C37.2986 3.97074 37.31 4.14208 37.31 4.31342C37.31 4.70179 37.2929 5.09016 37.2586 5.47853C37.2243 5.85548 37.2072 6.23814 37.2072 6.62651C37.2072 7.04915 37.23 7.47179 37.2757 7.89443C37.3214 8.30564 37.3671 8.71686 37.4128 9.12808C37.4699 9.53929 37.5213 9.95622 37.567 10.3789C37.6127 10.7901 37.6355 11.2013 37.6355 11.6125C37.6355 12.1151 37.5499 12.6063 37.3785 13.086C37.3443 13.1774 37.3271 13.2517 37.3271 13.3088C37.3271 13.4344 37.3557 13.5601 37.4128 13.6857C37.4699 13.7999 37.5327 13.9256 37.6013 14.0627C37.6812 14.1883 37.7498 14.3197 37.8069 14.4568C37.864 14.5938 37.8926 14.7366 37.8926 14.8851C37.8926 15.0222 37.8697 15.1535 37.824 15.2792C37.7783 15.4048 37.7555 15.5305 37.7555 15.6561C37.7555 15.8389 37.7783 16.0159 37.824 16.1873C37.8811 16.3586 37.9097 16.5357 37.9097 16.7184C37.9097 16.8212 37.8811 16.8841 37.824 16.9069C37.7783 16.9298 37.7212 16.9412 37.6527 16.9412C37.5841 16.9412 37.5213 16.9469 37.4642 16.9583C37.4185 16.9583 37.3957 16.9869 37.3957 17.044C37.3957 17.2153 37.4299 17.381 37.4985 17.5409C37.5784 17.6894 37.6184 17.8493 37.6184 18.0206C37.6184 18.1691 37.5841 18.3119 37.5156 18.449C37.4585 18.5746 37.4299 18.7117 37.4299 18.8602C37.4299 19.0087 37.4928 19.14 37.6184 19.2543C37.7555 19.3685 37.8526 19.5056 37.9097 19.6655C37.9668 19.8597 38.0125 20.0824 38.0468 20.3337C38.0925 20.585 38.1724 20.8249 38.2866 21.0533C38.4123 21.2818 38.6008 21.476 38.8521 21.6359C39.1034 21.7844 39.4746 21.8586 39.9658 21.8586H40.4627C40.5997 21.8586 40.7654 21.8701 40.9595 21.8929C41.1652 21.9158 41.3593 21.9614 41.5421 22.03C41.7363 22.0871 41.8962 22.1785 42.0219 22.3041C42.1589 22.4183 42.2275 22.5668 42.2275 22.7496C42.2275 22.9324 42.1932 23.1094 42.1247 23.2808C42.0561 23.4521 42.0219 23.6292 42.0219 23.8119C42.0219 23.869 42.0333 23.9547 42.0561 24.0689C41.8848 24.0689 41.7306 24.1089 41.5935 24.1889C41.4679 24.2574 41.3765 24.3773 41.3194 24.5487C41.0909 24.503 40.8567 24.4744 40.6169 24.463C40.3884 24.4402 40.16 24.4287 39.9315 24.4287C39.3489 24.4287 38.7721 24.4744 38.201 24.5658C37.6298 24.6458 37.053 24.7372 36.4704 24.84C35.8993 24.9313 35.3225 25.0227 34.7399 25.1141C34.1688 25.1941 33.5919 25.234 33.0094 25.234C32.8152 25.234 32.5753 25.2283 32.2897 25.2169C32.0042 25.2055 31.73 25.1655 31.4673 25.097C31.2046 25.0284 30.9761 24.9256 30.7819 24.7886C30.5992 24.6401 30.5078 24.4287 30.5078 24.1546C30.5078 23.8348 30.5364 23.6006 30.5935 23.4521C30.662 23.2922 30.742 23.1837 30.8333 23.1266C30.9247 23.058 31.0275 23.018 31.1418 23.0066C31.2674 22.9952 31.3873 22.9723 31.5016 22.9381C31.5358 22.9038 31.553 22.8695 31.553 22.8353C31.553 22.7782 31.5244 22.7325 31.4673 22.6982C31.4216 22.6525 31.3702 22.6182 31.3131 22.5954C31.5073 22.4241 31.7243 22.3041 31.9642 22.2356C32.2155 22.1671 32.4668 22.1214 32.7181 22.0985C32.9808 22.0757 33.2435 22.0528 33.5063 22.03C33.769 22.0071 34.0146 21.95 34.243 21.8586C34.3344 21.8244 34.4315 21.7273 34.5343 21.5674C34.6371 21.4074 34.7285 21.2304 34.8084 21.0362C34.8998 20.842 34.9684 20.6478 35.014 20.4537C35.0712 20.2595 35.0997 20.111 35.0997 20.0082V19.9739C35.0198 19.4256 34.9569 18.8887 34.9112 18.3633C34.8656 17.8379 34.8427 17.301 34.8427 16.7527C34.8427 16.707 34.8598 16.6328 34.8941 16.53C34.9284 16.4157 34.9741 16.3015 35.0312 16.1873C35.0769 16.0616 35.1397 15.9189 35.2197 15.7589C35.1283 15.6104 35.0483 15.4734 34.9798 15.3477C34.9227 15.2335 34.8713 15.125 34.8256 15.0222C34.7799 14.9194 34.757 14.8394 34.757 14.7823C34.757 14.6452 34.7799 14.5139 34.8256 14.3882C34.8713 14.2626 34.9055 14.1369 34.9284 14.0113C34.9969 13.5315 35.0312 13.0461 35.0312 12.5549C35.0312 12.3493 35.014 12.1494 34.9798 11.9552C34.9569 11.7496 34.9227 11.5497 34.877 11.3555C34.7285 10.6587 34.6542 9.93909 34.6542 9.19661C34.6542 8.32849 34.7113 7.46608 34.8256 6.60938C34.9398 5.75268 34.9969 4.89027 34.9969 4.02214C34.9969 3.72516 34.9455 3.4967 34.8427 3.33678C34.7399 3.16544 34.54 3.03408 34.243 2.9427C33.8432 2.82848 33.4263 2.73709 32.9922 2.66856C32.5696 2.60002 32.147 2.56575 31.7243 2.56575C31.4045 2.56575 31.0675 2.60573 30.7134 2.68569C30.3707 2.75423 30.0509 2.87417 29.7539 3.04551C29.4683 3.20542 29.2285 3.42245 29.0343 3.6966C28.8515 3.95932 28.7601 4.27915 28.7601 4.6561C28.7601 4.85029 28.7716 5.03876 28.7944 5.22152C28.8172 5.40429 28.8287 5.59276 28.8287 5.78695C28.8287 5.96971 28.7887 6.12963 28.7087 6.2667C28.6402 6.39235 28.6059 6.518 28.6059 6.64365C28.6059 6.81499 28.6516 6.9749 28.743 7.1234C28.8344 7.27189 28.8801 7.43181 28.8801 7.60315C28.8801 7.71738 28.8515 7.84303 28.7944 7.9801C28.7487 8.11717 28.6916 8.25995 28.6231 8.40845C28.5545 8.54552 28.486 8.68259 28.4175 8.81966C28.3603 8.95674 28.3147 9.08239 28.2804 9.19661C28.2233 9.36795 28.149 9.51645 28.0576 9.6421C27.9663 9.76775 27.8235 9.83057 27.6293 9.83057C27.4694 9.83057 27.3209 9.77917 27.1838 9.67636C27.0467 9.56214 26.9782 9.42507 26.9782 9.26515C26.9782 9.1395 27.0068 9.04241 27.0639 8.97387C27.1324 8.89391 27.1667 8.80253 27.1667 8.69973C27.1667 8.5855 27.1438 8.47127 27.0981 8.35705C27.0524 8.2314 26.9953 8.11146 26.9268 7.99723C26.8697 7.87158 26.8183 7.74593 26.7726 7.62028C26.7269 7.49464 26.7041 7.36899 26.7041 7.24334C26.7041 7.08342 26.7269 6.92921 26.7726 6.78072C26.8297 6.63222 26.8583 6.47802 26.8583 6.3181C26.8583 5.97542 26.8011 5.63845 26.6869 5.30719C26.5841 4.97594 26.5327 4.63897 26.5327 4.29629C26.5327 3.98788 26.567 3.62235 26.6355 3.19971C26.7041 2.77707 26.8183 2.37157 26.9782 1.9832C27.1495 1.59483 27.3666 1.26928 27.6293 1.00656C27.9034 0.732417 28.2461 0.595345 28.6573 0.595345C28.9429 0.595345 29.2228 0.629613 29.4969 0.698149C29.7825 0.755262 30.0737 0.783819 30.3707 0.783819C30.702 0.783819 31.0332 0.755262 31.3645 0.698149C31.6958 0.641035 32.027 0.612479 32.3583 0.612479C32.5867 0.612479 32.798 0.652458 32.9922 0.732417C33.1978 0.800953 33.4149 0.835221 33.6433 0.835221C33.7804 0.835221 33.8946 0.806664 33.986 0.749551C34.0888 0.681015 34.203 0.646747 34.3287 0.646747C34.4658 0.646747 34.5971 0.681015 34.7228 0.749551C34.8598 0.806664 34.9969 0.835221 35.134 0.835221C35.2596 0.835221 35.3739 0.818087 35.4767 0.783819C35.5909 0.749551 35.7051 0.732417 35.8193 0.732417C35.9907 0.732417 36.1563 0.755262 36.3162 0.800953C36.4876 0.846643 36.6532 0.869489 36.8131 0.869489L38.8863 0.612479C39.1947 0.589633 39.5032 0.566788 39.8116 0.543943C40.12 0.521097 40.4341 0.509675 40.7539 0.509675C41.3022 0.509675 41.8448 0.555365 42.3817 0.646747C42.93 0.726705 43.4782 0.829509 44.0265 0.955159V0.972293C44.4035 1.06367 44.6719 1.25786 44.8318 1.55485C44.9917 1.85184 45.0945 2.19452 45.1402 2.58289C45.1974 2.95984 45.2202 3.34821 45.2088 3.748C45.1974 4.14779 45.2031 4.49047 45.2259 4.77604C45.2602 5.2101 45.3002 5.64987 45.3458 6.09536C45.403 6.52942 45.4315 6.96348 45.4315 7.39754Z" fill="#B24D4F"/>
<path d="M68.3225 24.3259C68.3225 24.4973 68.2369 24.6401 68.0655 24.7543C67.9056 24.8685 67.6943 24.9599 67.4316 25.0284C67.1803 25.097 66.9004 25.1541 66.592 25.1998C66.2836 25.234 65.9752 25.2626 65.6668 25.2854C65.3698 25.2969 65.0956 25.3026 64.8443 25.3026C64.6045 25.3026 64.4217 25.3026 64.2961 25.3026C63.9991 25.3026 63.7306 25.3368 63.4908 25.4054C63.2509 25.4739 63.0224 25.5482 62.8054 25.6281C62.5998 25.7081 62.4056 25.7823 62.2228 25.8509C62.0401 25.9194 61.8573 25.9537 61.6746 25.9537C61.5146 25.9537 61.3776 25.9023 61.2633 25.7995C61.1605 25.6967 61.0292 25.6453 60.8693 25.6453C60.6865 25.6453 60.5152 25.6053 60.3552 25.5253C60.1953 25.4454 60.0525 25.3426 59.9269 25.2169C59.8012 25.0798 59.6984 24.9256 59.6185 24.7543C59.5499 24.5829 59.5157 24.4116 59.5157 24.2403C59.5157 24.0232 59.5671 23.8405 59.6699 23.692C59.7841 23.5435 59.9269 23.4235 60.0982 23.3322C60.2696 23.2294 60.4523 23.1608 60.6465 23.1266C60.8521 23.0809 61.0463 23.058 61.2291 23.058C61.389 23.058 61.5432 23.0809 61.6917 23.1266C61.8402 23.1608 61.9773 23.2294 62.1029 23.3322C62.1143 23.1608 62.16 23.018 62.24 22.9038C62.3199 22.7782 62.4056 22.6639 62.497 22.5611C62.5884 22.4469 62.6683 22.327 62.7369 22.2013C62.8168 22.0757 62.8568 21.9215 62.8568 21.7387C62.8568 21.4417 62.8397 21.1447 62.8054 20.8477C62.7711 20.5393 62.754 20.2366 62.754 19.9396C62.754 19.7454 62.7711 19.5513 62.8054 19.3571C62.8511 19.1629 62.8739 18.963 62.8739 18.7574C62.8739 18.5289 62.8568 18.2948 62.8225 18.0549C62.7997 17.815 62.7883 17.5751 62.7883 17.3353C62.7883 17.1068 62.8225 16.9183 62.8911 16.7698C62.9596 16.6213 62.9939 16.4843 62.9939 16.3586C62.9939 16.1187 62.9539 15.8789 62.8739 15.639C62.794 15.3877 62.6855 15.165 62.5484 14.9708C62.4113 14.7652 62.2514 14.5938 62.0686 14.4568C61.8859 14.3083 61.6974 14.2169 61.5032 14.1826C60.9321 14.0798 60.3609 14.0284 59.7898 14.0284C59.6299 14.0284 59.4814 14.057 59.3443 14.1141C59.2073 14.1598 59.0987 14.1826 59.0188 14.1826C58.9502 14.1826 58.8703 14.1598 58.7789 14.1141C58.6875 14.057 58.6247 14.0284 58.5904 14.0284C58.4419 14.0284 58.2877 14.057 58.1278 14.1141C57.9793 14.1598 57.8251 14.2112 57.6652 14.2683C57.5053 14.3254 57.3454 14.3825 57.1854 14.4396C57.0255 14.4853 56.8713 14.5082 56.7228 14.5082C56.4715 14.5082 56.2088 14.5139 55.9347 14.5253C55.6719 14.5253 55.4092 14.5481 55.1465 14.5938C54.8952 14.6281 54.6496 14.7023 54.4097 14.8166C54.1813 14.9194 53.9757 15.0736 53.7929 15.2792V15.3991C53.7929 15.6276 53.7986 15.8503 53.81 16.0673C53.8215 16.273 53.8272 16.49 53.8272 16.7184C53.8272 16.9812 53.81 17.2267 53.7758 17.4552C53.7415 17.6837 53.6615 17.9178 53.5359 18.1577C53.5016 18.2491 53.4845 18.329 53.4845 18.3976C53.4845 18.5803 53.5188 18.7574 53.5873 18.9287C53.6558 19.0886 53.6901 19.26 53.6901 19.4427C53.6901 19.5227 53.6615 19.6084 53.6044 19.6998C53.5473 19.7911 53.5188 19.8882 53.5188 19.991C53.5188 20.1509 53.5416 20.3052 53.5873 20.4537C53.6444 20.6021 53.7072 20.7564 53.7758 20.9163C53.8443 21.0648 53.9071 21.2133 53.9643 21.3618C54.0214 21.5102 54.0613 21.6645 54.0842 21.8244C54.1185 22.1556 54.2327 22.4069 54.4269 22.5783C54.6325 22.7382 54.8666 22.8695 55.1294 22.9723C55.3921 23.0637 55.6662 23.1494 55.9518 23.2294C56.2488 23.3093 56.5058 23.4235 56.7228 23.572C56.7 23.6863 56.6886 23.7719 56.6886 23.829C56.6886 24.0232 56.7228 24.206 56.7914 24.3773C56.8599 24.5487 56.8942 24.7314 56.8942 24.9256C56.8942 25.1198 56.8199 25.274 56.6714 25.3882C56.5344 25.5025 56.363 25.5824 56.1574 25.6281C55.9518 25.6852 55.7405 25.7195 55.5234 25.7309C55.3178 25.7423 55.1465 25.7481 55.0094 25.7481C54.9866 25.7481 54.9409 25.7366 54.8724 25.7138C54.8038 25.7024 54.7296 25.6795 54.6496 25.6453C54.5811 25.6224 54.5125 25.5996 54.444 25.5767C54.3755 25.5539 54.3241 25.5367 54.2898 25.5253C53.6501 25.651 52.999 25.7309 52.3365 25.7652C51.674 25.7995 51.0172 25.8166 50.3661 25.8166C50.1948 25.8166 49.972 25.7995 49.6979 25.7652C49.4237 25.7423 49.1496 25.6852 48.8755 25.5939C48.6127 25.5139 48.3843 25.3997 48.1901 25.2512C48.0073 25.0913 47.9159 24.8856 47.9159 24.6343C47.9159 24.5201 47.9331 24.3888 47.9674 24.2403C48.0016 24.0803 48.053 23.9261 48.1216 23.7776C48.1901 23.6292 48.2701 23.4921 48.3614 23.3664C48.4528 23.2408 48.5556 23.1494 48.6698 23.0923C48.9211 22.9781 49.201 22.8924 49.5094 22.8353C49.8292 22.7667 50.1262 22.6639 50.4004 22.5269C50.6859 22.3784 50.9258 22.1556 51.12 21.8586C51.3142 21.5616 51.4113 21.1162 51.4113 20.5222C51.4113 20.2252 51.3999 19.9339 51.377 19.6484C51.3542 19.3628 51.3427 19.0715 51.3427 18.7745C51.3427 18.6146 51.3485 18.4547 51.3599 18.2948C51.3713 18.1234 51.377 17.9578 51.377 17.7979C51.377 17.3067 51.3485 16.8212 51.2913 16.3415C51.2457 15.8503 51.2228 15.3591 51.2228 14.868C51.2228 14.6624 51.2399 14.4568 51.2742 14.2511C51.3085 14.0341 51.3256 13.8285 51.3256 13.6343C51.3256 13.3488 51.2856 13.0689 51.2057 12.7948C51.1257 12.5206 51.0857 12.2465 51.0857 11.9723C51.0857 11.9152 51.0914 11.8752 51.1029 11.8524C51.1486 11.7953 51.1885 11.681 51.2228 11.5097C51.2571 11.3269 51.2856 11.1328 51.3085 10.9271C51.3427 10.7215 51.3656 10.5274 51.377 10.3446C51.3999 10.1618 51.4113 10.0248 51.4113 9.93337C51.4113 9.65923 51.3827 9.3908 51.3256 9.12808C51.2799 8.85393 51.2571 8.57979 51.2571 8.30564C51.2571 8.14573 51.2685 7.98581 51.2913 7.82589C51.3256 7.65455 51.3427 7.48892 51.3427 7.32901C51.3427 7.26047 51.3313 7.22049 51.3085 7.20907C51.2856 7.18622 51.2571 7.16909 51.2228 7.15767C51.1885 7.14624 51.16 7.12911 51.1371 7.10626C51.1143 7.072 51.1029 7.00346 51.1029 6.90066C51.1029 6.80928 51.1543 6.69505 51.2571 6.55798C51.3599 6.40948 51.4113 6.27241 51.4113 6.14676C51.4113 6.04396 51.377 5.90117 51.3085 5.71841C51.2399 5.52423 51.1486 5.33004 51.0343 5.13585C50.9315 4.94167 50.8173 4.76462 50.6917 4.6047C50.5774 4.44478 50.4689 4.33627 50.3661 4.27915C50.1491 4.17635 49.8978 4.1021 49.6122 4.05641C49.3381 3.9993 49.0753 3.93076 48.8241 3.8508C48.5728 3.75942 48.3614 3.62806 48.1901 3.45672C48.0188 3.28538 47.9331 3.02837 47.9331 2.68569C47.9331 2.37728 48.0188 2.12598 48.1901 1.9318C48.3614 1.72619 48.5728 1.56056 48.8241 1.43491C49.0868 1.30926 49.3666 1.22359 49.6636 1.1779C49.9606 1.12079 50.229 1.09223 50.4689 1.09223C50.6403 1.09223 50.8287 1.10365 51.0343 1.1265C51.2514 1.13792 51.4627 1.16648 51.6683 1.21217C51.8853 1.25786 52.0909 1.31497 52.2851 1.38351C52.4907 1.44062 52.6678 1.50916 52.8163 1.58912C53.0904 1.49774 53.3703 1.42349 53.6558 1.36637C53.9414 1.30926 54.2327 1.2807 54.5297 1.2807C54.701 1.2807 54.8838 1.29784 55.078 1.33211C55.2836 1.36637 55.4663 1.43491 55.6262 1.53771C55.7976 1.64052 55.9347 1.7833 56.0375 1.96606C56.1517 2.1374 56.2088 2.36586 56.2088 2.65142C56.2088 2.77707 56.1917 2.87988 56.1574 2.95984C56.1231 3.02837 56.066 3.06264 55.9861 3.06264C55.6777 3.06264 55.3635 3.13689 55.0437 3.28538C54.7353 3.42245 54.4497 3.61093 54.187 3.8508C53.9243 4.09068 53.7072 4.36482 53.5359 4.67324C53.376 4.97023 53.296 5.27293 53.296 5.58134C53.296 5.72983 53.3132 5.87262 53.3474 6.00969C53.4502 6.36379 53.5359 6.71218 53.6044 7.05486C53.673 7.39754 53.7072 7.75165 53.7072 8.11717C53.7072 8.42558 53.6844 8.73399 53.6387 9.04241C53.593 9.3394 53.5702 9.6421 53.5702 9.95051C53.5702 10.3503 53.6615 10.6758 53.8443 10.9271C54.0385 11.167 54.2841 11.3555 54.5811 11.4926C54.8781 11.6296 55.1979 11.721 55.5406 11.7667C55.8947 11.8124 56.2374 11.8352 56.5686 11.8352C56.8999 11.8352 57.2311 11.8238 57.5624 11.801C57.8936 11.7667 58.2306 11.7496 58.5733 11.7496C58.916 11.7496 59.2529 11.7953 59.5842 11.8867C59.9155 11.9666 60.2524 12.0066 60.5951 12.0066C60.7208 12.0066 60.8464 12.0009 60.9721 11.9895C61.0977 11.9666 61.2062 11.9266 61.2976 11.8695C61.3319 11.8467 61.3833 11.8067 61.4518 11.7496C61.5318 11.6925 61.6117 11.6411 61.6917 11.5954C61.7831 11.5383 61.863 11.4869 61.9316 11.4412C62.0115 11.3955 62.0686 11.3726 62.1029 11.3726C62.2971 11.3384 62.4456 11.2241 62.5484 11.03C62.6512 10.8358 62.7254 10.6187 62.7711 10.3789C62.8282 10.1276 62.8625 9.87626 62.8739 9.62496C62.8854 9.36224 62.8911 9.15092 62.8911 8.991C62.8911 8.80824 62.8625 8.63119 62.8054 8.45985C62.7483 8.28851 62.6797 8.12288 62.5998 7.96296C62.5313 7.79162 62.4684 7.62028 62.4113 7.44894C62.3542 7.2776 62.3256 7.09484 62.3256 6.90066C62.3256 6.6722 62.3428 6.44375 62.377 6.2153C62.4227 5.97542 62.4456 5.74126 62.4456 5.5128C62.4456 5.03305 62.3542 4.67324 62.1714 4.43336C62.0001 4.19348 61.7831 4.01643 61.5203 3.90221C61.2576 3.78798 60.9663 3.71373 60.6465 3.67946C60.3381 3.6452 60.0525 3.59379 59.7898 3.52526C59.5271 3.4453 59.3043 3.32536 59.1216 3.16544C58.9502 3.00553 58.8646 2.74281 58.8646 2.37728C58.8646 2.1374 58.916 1.94893 59.0188 1.81186C59.1216 1.67479 59.2529 1.57198 59.4129 1.50345C59.5842 1.42349 59.767 1.37209 59.9612 1.34924C60.1553 1.3264 60.3438 1.31497 60.5266 1.31497C60.8921 1.31497 61.2462 1.33782 61.5889 1.38351C61.943 1.4292 62.3028 1.45204 62.6683 1.45204C63.011 1.45204 63.388 1.41778 63.7992 1.34924C64.2104 1.2807 64.6273 1.24644 65.0499 1.24644C65.2784 1.24644 65.5468 1.26357 65.8552 1.29784C66.1637 1.32068 66.4606 1.3778 66.7462 1.46918C67.0318 1.56056 67.2717 1.69763 67.4658 1.88039C67.66 2.06316 67.7571 2.31446 67.7571 2.63429C67.7571 2.85132 67.7 3.02837 67.5858 3.16544C67.4716 3.29109 67.3288 3.40532 67.1574 3.50812C66.9861 3.59951 66.7919 3.67946 66.5749 3.748C66.3578 3.81654 66.1465 3.89078 65.9409 3.97074C65.7353 4.03928 65.5468 4.12495 65.3755 4.22775C65.2042 4.31913 65.0785 4.44478 64.9985 4.6047C64.9186 4.74177 64.8672 4.89598 64.8443 5.06732C64.8329 5.23866 64.8272 5.40429 64.8272 5.5642C64.8272 5.86119 64.8386 6.15247 64.8615 6.43804C64.8957 6.72361 64.9129 7.01488 64.9129 7.31187C64.9129 8.33991 64.8786 9.36224 64.8101 10.3789C64.7415 11.3841 64.7073 12.395 64.7073 13.4116C64.7073 13.7657 64.7073 14.1198 64.7073 14.4739C64.7187 14.8166 64.7415 15.165 64.7758 15.5191C64.7987 15.8503 64.8615 16.1759 64.9643 16.4957C65.0671 16.8041 65.1185 17.1239 65.1185 17.4552C65.1185 17.6151 65.1014 17.7408 65.0671 17.8321C65.0328 17.9235 64.9928 18.0035 64.9471 18.072C64.9129 18.1406 64.8786 18.2034 64.8443 18.2605C64.8101 18.3176 64.7929 18.3804 64.7929 18.449C64.7929 18.6432 64.8386 18.8316 64.93 19.0144C65.0214 19.1972 65.0671 19.3856 65.0671 19.5798C65.0671 19.8311 65.0385 20.0824 64.9814 20.3337C64.9357 20.585 64.9129 20.8363 64.9129 21.0876C64.9129 21.1105 64.93 21.2018 64.9643 21.3618C65.01 21.5102 65.0557 21.6759 65.1014 21.8586C65.1585 22.0414 65.2156 22.2127 65.2727 22.3727C65.3298 22.5326 65.3755 22.6297 65.4098 22.6639C65.5468 22.801 65.7125 22.9038 65.9066 22.9723C66.1008 23.0409 66.3064 23.1037 66.5235 23.1608C66.7405 23.2065 66.9518 23.2579 67.1574 23.315C67.3745 23.3721 67.5629 23.4578 67.7229 23.572C67.8371 23.652 67.9627 23.7605 68.0998 23.8976C68.2483 24.0232 68.3225 24.166 68.3225 24.3259Z" fill="#B24D4F"/>
<path d="M88.7291 24.0689C88.7291 24.1946 88.6949 24.3202 88.6263 24.4459C88.5578 24.5601 88.4721 24.6686 88.3693 24.7714C88.2665 24.8628 88.1523 24.9428 88.0266 25.0113C87.901 25.0684 87.7811 25.097 87.6668 25.097C87.5869 25.097 87.5069 25.0913 87.427 25.0798C87.347 25.0684 87.267 25.0627 87.1871 25.0627C87.0843 25.0627 87.0157 25.097 86.9815 25.1655C86.9472 25.2226 86.9129 25.2854 86.8787 25.354C86.8558 25.4225 86.8158 25.4853 86.7587 25.5424C86.7016 25.611 86.5988 25.6453 86.4503 25.6453C86.3589 25.6453 86.2618 25.6338 86.159 25.611C86.0562 25.5881 85.9534 25.5767 85.8506 25.5767C85.6336 25.5767 85.4223 25.6167 85.2167 25.6967C85.0225 25.788 84.8112 25.8337 84.5827 25.8337C84.3885 25.8337 84.0972 25.7995 83.7089 25.7309C83.3205 25.6738 82.9264 25.5767 82.5266 25.4396C82.1383 25.314 81.7956 25.1598 81.4986 24.977C81.2016 24.7828 81.0531 24.5601 81.0531 24.3088C81.0531 24.1146 81.1616 23.9204 81.3787 23.7262C81.6071 23.5206 81.8584 23.2979 82.1325 23.058C82.4067 22.8067 82.6523 22.5269 82.8693 22.2185C83.0978 21.91 83.212 21.5502 83.212 21.139C83.212 20.8991 83.1606 20.665 83.0578 20.4365C82.9664 20.2081 82.8465 19.9967 82.698 19.8026C82.5495 19.597 82.3781 19.4085 82.184 19.2371C82.0012 19.0658 81.8241 18.9059 81.6528 18.7574C81.5957 18.7345 81.51 18.7231 81.3958 18.7231C81.0874 18.7231 80.779 18.7574 80.4706 18.8259C80.1621 18.883 79.8537 18.9116 79.5453 18.9116C79.3854 18.9116 79.2198 18.8887 79.0484 18.8431C78.8885 18.7974 78.78 18.6831 78.7229 18.5004C78.4259 18.6489 78.1289 18.7917 77.8319 18.9287C77.5349 19.0544 77.2322 19.1686 76.9238 19.2714C76.7296 19.3399 76.5868 19.3913 76.4955 19.4256C76.4155 19.4599 76.3527 19.4999 76.307 19.5455C76.2727 19.5912 76.2442 19.6598 76.2213 19.7512C76.2099 19.8425 76.1699 19.9739 76.1014 20.1452C76.0557 20.2595 76.0328 20.3623 76.0328 20.4537C76.0328 20.545 76.0328 20.6478 76.0328 20.7621C76.0328 20.9106 76.0043 21.0305 75.9472 21.1219C75.8901 21.2018 75.8272 21.2818 75.7587 21.3618C75.7016 21.4303 75.6445 21.5045 75.5874 21.5845C75.5302 21.6645 75.5017 21.7673 75.5017 21.8929C75.5017 21.9957 75.5188 22.0871 75.5531 22.1671L75.536 22.2527C75.536 22.4241 75.5816 22.5611 75.673 22.6639C75.7644 22.7553 75.8729 22.8296 75.9986 22.8867C76.1356 22.9324 76.2784 22.9781 76.4269 23.0238C76.5754 23.0694 76.7068 23.1266 76.821 23.1951C76.9352 23.2636 77.0438 23.3779 77.1466 23.5378C77.2608 23.6863 77.3579 23.8519 77.4378 24.0347C77.5292 24.206 77.6035 24.383 77.6606 24.5658C77.7177 24.7372 77.7462 24.8856 77.7462 25.0113V25.097H77.5235C77.0666 25.097 76.6097 25.1198 76.1528 25.1655C75.7073 25.1998 75.2618 25.2397 74.8163 25.2854C74.3708 25.3426 73.9197 25.3882 73.4627 25.4225C73.0173 25.4682 72.5661 25.491 72.1092 25.491C71.9492 25.491 71.7151 25.4853 71.4067 25.4739C71.1097 25.4625 70.8127 25.4282 70.5157 25.3711C70.2187 25.3254 69.956 25.2455 69.7275 25.1312C69.5105 25.0056 69.402 24.8285 69.402 24.6001C69.402 24.3602 69.4534 24.1603 69.5562 24.0004C69.6704 23.8405 69.8132 23.7091 69.9845 23.6063C70.1673 23.4921 70.3672 23.4007 70.5842 23.3322C70.8127 23.2522 71.0354 23.178 71.2525 23.1094C71.4809 23.0409 71.6922 22.9723 71.8864 22.9038C72.092 22.8353 72.2634 22.7439 72.4004 22.6297C72.5375 22.5154 72.6517 22.3327 72.7431 22.0814C72.8345 21.8187 72.9087 21.5388 72.9659 21.2418C73.023 20.9448 73.0744 20.6535 73.1201 20.368C73.1658 20.071 73.2057 19.8368 73.24 19.6655C73.2514 19.6084 73.2571 19.5398 73.2571 19.4599C73.2686 19.3685 73.2743 19.2771 73.2743 19.1857C73.2857 19.0944 73.2914 19.0087 73.2914 18.9287C73.3028 18.8488 73.32 18.7917 73.3428 18.7574C73.457 18.5632 73.5427 18.449 73.5998 18.4147C73.6684 18.3804 73.714 18.3519 73.7369 18.329C73.7712 18.3062 73.7883 18.2491 73.7883 18.1577C73.7997 18.0549 73.8054 17.8493 73.8054 17.5409C73.8054 17.4038 73.834 17.301 73.8911 17.2325C73.9482 17.1525 74.0053 17.084 74.0624 17.0269C74.131 16.9697 74.1938 16.9183 74.2509 16.8726C74.308 16.8155 74.3366 16.7413 74.3366 16.6499C74.3366 16.49 74.2909 16.3472 74.1995 16.2216C74.1081 16.0845 74.0624 15.936 74.0624 15.7761C74.0624 15.6847 74.0853 15.6047 74.131 15.5362C74.1767 15.4677 74.2281 15.4048 74.2852 15.3477C74.3537 15.2906 74.4108 15.2335 74.4565 15.1764C74.5022 15.1078 74.5251 15.0279 74.5251 14.9365C74.5251 14.8109 74.4965 14.6852 74.4394 14.5596C74.3937 14.4339 74.3708 14.3083 74.3708 14.1826C74.3708 14.0912 74.3994 14.0284 74.4565 13.9941C74.5251 13.9484 74.5936 13.9142 74.6621 13.8913C74.7421 13.8685 74.8106 13.8513 74.8677 13.8399C74.9363 13.8171 74.9705 13.7885 74.9705 13.7543C74.9363 13.6857 74.8734 13.6515 74.7821 13.6515C74.645 13.6515 74.5765 13.7257 74.5765 13.8742C74.4965 13.8171 74.428 13.7543 74.3708 13.6857C74.3137 13.6058 74.2852 13.5201 74.2852 13.4287C74.2852 13.3145 74.3137 13.2117 74.3708 13.1203C74.428 13.0175 74.4908 12.9033 74.5593 12.7776C74.6393 12.652 74.7078 12.5092 74.7649 12.3493C74.822 12.1894 74.8506 11.9952 74.8506 11.7667C74.8506 11.5268 74.8163 11.2984 74.7478 11.0814C74.6793 10.8529 74.645 10.6244 74.645 10.396C74.645 10.2818 74.6678 10.1675 74.7135 10.0533C74.7706 9.93909 74.8335 9.83057 74.902 9.72777C74.982 9.61354 75.0562 9.50502 75.1247 9.40222C75.2047 9.28799 75.2618 9.16806 75.2961 9.04241C75.3646 8.82538 75.3989 8.59692 75.3989 8.35705C75.4103 8.11717 75.416 7.87729 75.416 7.63742C75.4274 7.39754 75.4446 7.16338 75.4674 6.93492C75.5017 6.69505 75.5759 6.47231 75.6902 6.2667C75.793 6.08394 75.8729 5.93544 75.93 5.82121C75.9872 5.70699 76.0386 5.59847 76.0842 5.49567C76.1299 5.38144 76.1699 5.2615 76.2042 5.13585C76.2385 4.99878 76.2727 4.82173 76.307 4.6047C76.3641 4.27344 76.4498 3.95361 76.564 3.6452C76.6896 3.33678 76.7753 3.01695 76.821 2.68569C76.8439 2.43439 76.8553 2.22307 76.8553 2.05173C76.8667 1.86897 76.8953 1.70905 76.9409 1.57198C76.9981 1.43491 77.0894 1.31497 77.2151 1.21217C77.3522 1.10936 77.5578 1.00656 77.8319 0.903757C78.1289 0.800953 78.4259 0.732417 78.7229 0.698149C79.0199 0.652458 79.3169 0.629613 79.6139 0.629613C79.9565 0.629613 80.3106 0.646747 80.6762 0.681015C80.7104 0.8752 80.7847 1.05225 80.8989 1.21217C81.0131 1.36066 81.1331 1.50916 81.2587 1.65765C81.3958 1.80615 81.5214 1.96035 81.6357 2.12027C81.7613 2.26877 81.847 2.44011 81.8927 2.63429C81.9498 2.89701 81.9841 3.14831 81.9955 3.38819C82.0183 3.61664 82.1154 3.84509 82.2868 4.07355C82.3667 4.1992 82.4067 4.34769 82.4067 4.51903C82.4067 4.78175 82.3724 5.03305 82.3039 5.27293C82.2354 5.5128 82.2011 5.75839 82.2011 6.00969C82.2011 6.15818 82.2468 6.40377 82.3382 6.74645C82.4295 7.08913 82.5381 7.46037 82.6637 7.86016C82.7894 8.24853 82.9093 8.63119 83.0235 9.00814C83.1377 9.37366 83.2234 9.65923 83.2805 9.86484C83.3833 10.2989 83.4347 10.7444 83.4347 11.2013C83.4462 11.6582 83.5204 12.1037 83.6575 12.5377C83.7945 12.9946 83.9145 13.4516 84.0173 13.9085C84.1201 14.3539 84.1886 14.8166 84.2229 15.2963C84.2457 15.7418 84.3029 16.1759 84.3942 16.5985C84.4856 17.0097 84.5827 17.4266 84.6855 17.8493C84.7883 18.2605 84.8797 18.6774 84.9597 19.1001C85.051 19.5227 85.0967 19.9625 85.0967 20.4194C85.0967 20.5907 85.0796 20.7678 85.0453 20.9505C85.0225 21.1333 84.9482 21.2932 84.8226 21.4303C85.0625 21.7159 85.3309 22.0243 85.6279 22.3555C85.9363 22.6868 86.239 22.9495 86.536 23.1437C86.6502 23.2122 86.8273 23.2636 87.0671 23.2979C87.307 23.3322 87.5469 23.3779 87.7868 23.435C88.0381 23.4807 88.2551 23.5549 88.4379 23.6577C88.632 23.7491 88.7291 23.8862 88.7291 24.0689ZM81.55 14.8337C81.55 14.7309 81.51 14.5995 81.4301 14.4396C81.3501 14.2683 81.2587 14.0798 81.1559 13.8742C81.0645 13.6686 80.9789 13.4458 80.8989 13.206C80.8189 12.9661 80.779 12.7148 80.779 12.4521C80.779 12.1437 80.7333 11.841 80.6419 11.544C80.5505 11.2356 80.4877 10.9271 80.4534 10.6187C80.4306 10.3674 80.402 10.0933 80.3677 9.7963C80.3449 9.48789 80.2878 9.20232 80.1964 8.9396C80.105 8.66546 79.9622 8.44272 79.7681 8.27138C79.5853 8.08861 79.3169 7.99723 78.9628 7.99723C78.9399 8.08861 78.8999 8.15715 78.8428 8.20284C78.7857 8.23711 78.7172 8.27138 78.6372 8.30564C78.5687 8.32849 78.4944 8.35134 78.4145 8.37418C78.3345 8.39703 78.2717 8.43701 78.226 8.49412C78.2374 8.52839 78.2431 8.57979 78.2431 8.64832C78.2431 8.85393 78.1974 9.04812 78.1061 9.23088C78.0261 9.40222 77.9519 9.57927 77.8833 9.76203C77.8034 9.95622 77.7462 10.1618 77.712 10.3789C77.6891 10.5845 77.6777 10.7901 77.6777 10.9957C77.6777 11.1784 77.6834 11.3555 77.6948 11.5268C77.7063 11.6982 77.712 11.8695 77.712 12.0409C77.712 12.3036 77.6891 12.532 77.6434 12.7262C77.5977 12.909 77.5463 13.0803 77.4892 13.2402C77.4321 13.4002 77.3807 13.5544 77.335 13.7029C77.2893 13.8399 77.2665 13.9884 77.2665 14.1483C77.2665 14.491 77.2779 14.788 77.3008 15.0393C77.3236 15.2906 77.375 15.5019 77.455 15.6733C77.5349 15.8332 77.6492 15.9588 77.7976 16.0502C77.9461 16.1302 78.1517 16.1702 78.4145 16.1702C78.5972 16.1702 78.86 16.1473 79.2026 16.1016C79.5567 16.0559 79.9051 15.9817 80.2478 15.8789C80.6019 15.7646 80.9046 15.6219 81.1559 15.4505C81.4186 15.2792 81.55 15.0736 81.55 14.8337Z" fill="#B24D4F"/>
<path d="M109.221 24.5144C109.221 24.6286 109.09 24.72 108.827 24.7886C108.576 24.8571 108.262 24.9085 107.885 24.9428C107.519 24.977 107.125 24.9999 106.703 25.0113C106.28 25.0227 105.909 25.0284 105.589 25.0284H104.784C104.452 25.0284 104.127 25.0399 103.807 25.0627C103.499 25.0855 103.179 25.097 102.848 25.097C102.745 25.097 102.602 25.097 102.419 25.097C102.248 25.0855 102.077 25.057 101.905 25.0113C101.745 24.9656 101.602 24.9028 101.477 24.8228C101.363 24.7429 101.305 24.6229 101.305 24.463C101.305 24.4402 101.334 24.3259 101.391 24.1203C101.46 23.9147 101.551 23.6977 101.665 23.4692C101.791 23.2294 101.939 23.018 102.111 22.8353C102.282 22.6411 102.476 22.544 102.693 22.544C102.819 22.544 102.933 22.5611 103.036 22.5954C103.07 22.4469 103.087 22.287 103.087 22.1156C103.087 21.7844 103.019 21.4817 102.882 21.2075C102.756 20.9334 102.608 20.665 102.436 20.4022C102.276 20.1395 102.117 19.8768 101.957 19.6141C101.797 19.3399 101.688 19.043 101.631 18.7231C101.597 18.5404 101.534 18.3861 101.443 18.2605C101.363 18.1234 101.271 17.9921 101.168 17.8664C101.077 17.7408 100.986 17.6094 100.894 17.4723C100.814 17.3353 100.757 17.1696 100.723 16.9754C100.7 16.827 100.672 16.7184 100.637 16.6499C100.614 16.5699 100.58 16.5071 100.534 16.4614C100.489 16.4157 100.426 16.3758 100.346 16.3415C100.277 16.3072 100.186 16.2501 100.072 16.1702C99.9576 16.1016 99.8777 16.0217 99.832 15.9303C99.7977 15.8389 99.7691 15.7475 99.7463 15.6561C99.7349 15.5533 99.7235 15.4505 99.712 15.3477C99.7006 15.2335 99.6721 15.125 99.6264 15.0222C99.535 14.9765 99.4493 14.9365 99.3694 14.9022C99.3008 14.868 99.2209 14.828 99.1295 14.7823C99.0609 14.6224 98.9981 14.4453 98.941 14.2511C98.8839 14.0455 98.8096 13.8513 98.7183 13.6686C98.6383 13.4858 98.5298 13.3373 98.3927 13.2231C98.2671 13.0975 98.09 13.0346 97.8616 13.0346C97.7131 13.0346 97.5589 13.1032 97.3989 13.2402C97.2504 13.3659 97.0905 13.5201 96.9192 13.7029C96.7593 13.8856 96.5994 14.0798 96.4394 14.2854C96.2795 14.4796 96.1196 14.6452 95.9597 14.7823C95.9483 14.828 95.9426 14.8737 95.9426 14.9194C95.9426 14.9651 95.9426 15.0108 95.9426 15.0564C95.9426 15.1935 95.9483 15.3363 95.9597 15.4848C95.9711 15.6219 95.9768 15.7589 95.9768 15.896C95.9768 16.0902 95.9483 16.2558 95.8912 16.3929C95.8455 16.53 95.7883 16.667 95.7198 16.8041C95.6513 16.9298 95.5885 17.0611 95.5313 17.1982C95.4856 17.3238 95.4628 17.4723 95.4628 17.6437C95.4628 18.0092 95.5028 18.3747 95.5827 18.7403C95.6741 19.1058 95.7198 19.4713 95.7198 19.8368C95.7198 20.031 95.7084 20.2252 95.6855 20.4194C95.6741 20.6136 95.6684 20.8078 95.6684 21.0019C95.6684 21.4132 95.7427 21.733 95.8912 21.9614C96.0396 22.1785 96.2224 22.3498 96.4394 22.4755C96.6565 22.6011 96.8963 22.6925 97.1591 22.7496C97.4218 22.7953 97.6617 22.8467 97.8787 22.9038C98.0957 22.9495 98.2785 23.018 98.427 23.1094C98.5755 23.1894 98.6497 23.3265 98.6497 23.5206C98.6497 23.6691 98.6097 23.829 98.5298 24.0004C98.4613 24.1717 98.3642 24.3316 98.2385 24.4801C98.1129 24.6286 97.9701 24.76 97.8102 24.8742C97.6617 24.977 97.5132 25.0341 97.3647 25.0456C97.2961 25.057 97.2276 25.0627 97.1591 25.0627C97.0905 25.0627 97.022 25.0627 96.9535 25.0627C96.7821 25.0627 96.6108 25.0456 96.4394 25.0113C96.2681 24.9656 96.091 24.9428 95.9083 24.9428C95.7598 24.9428 95.6113 24.9656 95.4628 25.0113C95.3257 25.057 95.1829 25.097 95.0345 25.1312C94.6689 25.2112 94.2977 25.2797 93.9207 25.3368C93.5438 25.4054 93.1726 25.4396 92.807 25.4396C92.6585 25.4396 92.4815 25.394 92.2759 25.3026C92.0703 25.2112 91.8704 25.0913 91.6762 24.9428C91.4934 24.7943 91.3335 24.6229 91.1964 24.4287C91.0708 24.2346 91.008 24.0347 91.008 23.829C91.008 23.5206 91.1165 23.2636 91.3335 23.058C91.5505 22.841 91.7904 22.6868 92.0531 22.5954C92.1559 22.4126 92.2759 22.3041 92.4129 22.2699C92.5614 22.2356 92.6985 22.2127 92.8242 22.2013C92.9612 22.1785 93.0812 22.1328 93.184 22.0642C93.2868 21.9843 93.3496 21.8072 93.3725 21.5331C93.3953 21.3046 93.4581 21.099 93.5609 20.9163C93.6752 20.7335 93.7323 20.5336 93.7323 20.3166L93.7151 20.2309C93.6352 19.4313 93.5495 18.6374 93.4581 17.8493C93.3782 17.0611 93.3382 16.2615 93.3382 15.4505C93.3382 14.6966 93.3496 13.9427 93.3725 13.1888C93.4067 12.4235 93.4638 11.6639 93.5438 10.91C93.5666 10.7501 93.5895 10.5902 93.6123 10.4303C93.6466 10.2589 93.6637 10.0876 93.6637 9.91624C93.6637 9.73348 93.618 9.56785 93.5267 9.41935C93.4353 9.25944 93.3896 9.08239 93.3896 8.8882C93.3896 8.65975 93.401 8.44272 93.4239 8.23711C93.4581 8.02008 93.4753 7.79734 93.4753 7.56888C93.4753 7.40897 93.4581 7.25476 93.4239 7.10626C93.401 6.95777 93.3896 6.80928 93.3896 6.66078C93.3896 6.44375 93.3953 6.23243 93.4067 6.02682C93.4181 5.80979 93.4239 5.59847 93.4239 5.39286C93.4239 4.94738 93.3953 4.59328 93.3382 4.33056C93.2925 4.06784 93.1897 3.87365 93.0298 3.748C92.8813 3.61093 92.67 3.52526 92.3958 3.49099C92.1331 3.4453 91.779 3.42245 91.3335 3.42245C91.1507 3.42245 90.9623 3.41674 90.7681 3.40532C90.5853 3.3939 90.414 3.35392 90.2541 3.28538C90.1056 3.21685 89.9799 3.11975 89.8771 2.9941C89.7743 2.85703 89.7229 2.66856 89.7229 2.42868C89.7229 2.18881 89.7743 1.94893 89.8771 1.70905C89.9913 1.45776 90.1455 1.25786 90.3397 1.10936C90.4882 0.995138 90.7167 0.898045 91.0251 0.818087C91.3449 0.726705 91.7047 0.652458 92.1045 0.595345C92.5158 0.538231 92.9441 0.498252 93.3896 0.475407C93.8465 0.441139 94.2863 0.418293 94.7089 0.406871C95.143 0.384025 95.537 0.372603 95.8912 0.372603C96.2453 0.36118 96.5308 0.355469 96.7479 0.355469C97.1248 0.355469 97.4332 0.378314 97.6731 0.424005C97.9244 0.469695 98.1243 0.561077 98.2728 0.698149C98.4327 0.835221 98.5412 1.02369 98.5983 1.26357C98.6669 1.50345 98.7011 1.81757 98.7011 2.20594C98.7011 2.60573 98.6097 2.9427 98.427 3.21685C98.2442 3.49099 97.9244 3.62806 97.4675 3.62806C97.3418 3.62806 97.2162 3.62235 97.0905 3.61093C96.9649 3.58808 96.8392 3.57666 96.7136 3.57666C96.5422 3.57666 96.3709 3.6452 96.1996 3.78227C96.0282 3.90792 95.874 4.05641 95.7369 4.22775C95.6113 4.39909 95.5085 4.56472 95.4285 4.72464C95.3486 4.88456 95.3086 4.99878 95.3086 5.06732C95.3086 5.2615 95.3429 5.45569 95.4114 5.64987C95.4914 5.83264 95.5313 6.02111 95.5313 6.2153C95.5313 6.44375 95.4971 6.66078 95.4285 6.86639C95.36 7.072 95.3257 7.28903 95.3257 7.51748C95.3257 7.60886 95.3314 7.69453 95.3429 7.77449C95.3543 7.84303 95.3714 7.91727 95.3943 7.99723C95.4057 8.08861 95.4171 8.23711 95.4285 8.44272C95.44 8.64832 95.4514 8.88249 95.4628 9.14521C95.4742 9.39651 95.4914 9.65923 95.5142 9.93337C95.537 10.1961 95.5713 10.4417 95.617 10.6701C95.6627 10.8872 95.7198 11.0699 95.7883 11.2184C95.8683 11.3555 95.9711 11.424 96.0968 11.424C96.2795 11.424 96.4908 11.2755 96.7307 10.9785C96.982 10.6816 97.2219 10.3389 97.4503 9.95051C97.6902 9.55072 97.8958 9.16234 98.0672 8.7854C98.2499 8.39703 98.3584 8.11717 98.3927 7.94583C98.6212 7.84303 98.8268 7.71738 99.0095 7.56888C99.2037 7.40897 99.3808 7.24334 99.5407 7.072C99.6549 6.95777 99.8263 6.7693 100.055 6.50657C100.295 6.24385 100.534 5.964 100.774 5.66701C101.014 5.37002 101.22 5.08445 101.391 4.81031C101.574 4.53616 101.665 4.32485 101.665 4.17635C101.665 4.00501 101.62 3.82225 101.528 3.62806C101.437 3.43388 101.34 3.22827 101.237 3.01124C101.134 2.79421 101.037 2.57718 100.946 2.36015C100.854 2.13169 100.809 1.89753 100.809 1.65765C100.809 1.45204 100.934 1.28642 101.186 1.16077C101.437 1.03512 101.734 0.938025 102.077 0.869489C102.419 0.78953 102.762 0.738128 103.105 0.715283C103.459 0.681015 103.733 0.663881 103.927 0.663881C104.784 0.663881 105.629 0.772396 106.463 0.989427C107.308 1.19503 108.119 1.4806 108.896 1.84613C108.77 2.21165 108.616 2.48008 108.433 2.65142C108.262 2.82276 108.073 2.94841 107.868 3.02837C107.662 3.10833 107.439 3.15973 107.2 3.18258C106.96 3.194 106.714 3.22256 106.463 3.26825C106.212 3.30252 105.955 3.37105 105.692 3.47386C105.441 3.57666 105.195 3.75371 104.955 4.00501C104.772 4.1992 104.601 4.39909 104.441 4.6047C104.281 4.81031 104.115 5.01021 103.944 5.20439C103.784 5.39858 103.613 5.58705 103.43 5.76981C103.247 5.94115 103.036 6.09536 102.796 6.23243V6.3181C102.796 6.72932 102.688 7.09484 102.471 7.41468C102.254 7.73451 102.014 8.06006 101.751 8.39131C101.5 8.72257 101.266 9.08239 101.048 9.47076C100.831 9.85913 100.723 10.3275 100.723 10.8757C100.723 11.1499 100.751 11.4526 100.809 11.7838C100.866 12.1037 100.957 12.4178 101.083 12.7262C101.208 13.0232 101.368 13.2916 101.563 13.5315C101.768 13.7714 102.014 13.9427 102.299 14.0455C102.299 14.1026 102.311 14.234 102.334 14.4396C102.356 14.6338 102.385 14.8508 102.419 15.0907C102.465 15.3192 102.516 15.5476 102.573 15.7761C102.642 15.9931 102.716 16.153 102.796 16.2558C102.865 16.3358 102.905 16.4043 102.916 16.4614C102.939 16.5185 102.95 16.5757 102.95 16.6328C102.962 16.6785 102.967 16.7299 102.967 16.787C102.979 16.8327 103.002 16.8955 103.036 16.9754C103.116 17.0326 103.196 17.0783 103.276 17.1125C103.356 17.1468 103.442 17.1868 103.533 17.2325V17.9521C103.567 18.0549 103.613 18.1177 103.67 18.1406C103.727 18.1634 103.801 18.1748 103.893 18.1748C103.961 18.1748 104.013 18.2491 104.047 18.3976C104.093 18.5461 104.133 18.7288 104.167 18.9459C104.213 19.1515 104.258 19.3685 104.304 19.597C104.35 19.8254 104.418 20.0139 104.51 20.1624C104.624 20.3566 104.721 20.5622 104.801 20.7792C104.892 20.9962 104.978 21.2133 105.058 21.4303C105.149 21.6359 105.246 21.8415 105.349 22.0471C105.452 22.2527 105.578 22.4355 105.726 22.5954C105.943 22.8353 106.212 23.0295 106.531 23.178C106.863 23.315 107.177 23.4121 107.474 23.4692C107.554 23.4921 107.691 23.5435 107.885 23.6234C108.079 23.692 108.273 23.7776 108.468 23.8805C108.673 23.9833 108.85 24.0918 108.999 24.206C109.147 24.3202 109.221 24.423 109.221 24.5144Z" fill="#B24D4F"/>
<path d="M129.782 8.18571C129.782 8.2314 129.754 8.32278 129.697 8.45985C129.639 8.59692 129.571 8.74542 129.491 8.90533C129.422 9.06525 129.348 9.21375 129.268 9.35082C129.188 9.48789 129.125 9.57927 129.08 9.62496L129.114 9.6421C129.091 9.6421 129.068 9.64781 129.045 9.65923H128.96C128.914 9.67065 128.863 9.67636 128.806 9.67636C128.76 9.67636 128.708 9.67636 128.651 9.67636L128.72 9.65923C128.457 9.64781 128.217 9.60212 128 9.52216C127.795 9.43078 127.623 9.26515 127.486 9.02527C127.463 8.97958 127.429 8.89962 127.383 8.7854C127.338 8.65975 127.292 8.52839 127.246 8.39131C127.201 8.25424 127.161 8.12859 127.126 8.01437C127.104 7.88872 127.092 7.79734 127.092 7.74022C127.092 7.64884 127.098 7.55175 127.109 7.44894C127.132 7.34614 127.144 7.24905 127.144 7.15767C127.144 6.80356 127.109 6.45517 127.041 6.11249C126.972 5.76981 126.938 5.42142 126.938 5.06732C126.938 4.83887 126.967 4.61612 127.024 4.39909C127.081 4.18206 127.184 3.98217 127.332 3.7994H127.246C127.109 3.7994 127.001 3.75942 126.921 3.67946C126.841 3.58808 126.71 3.54239 126.527 3.54239C126.093 3.54239 125.67 3.59379 125.259 3.6966C124.848 3.7994 124.414 3.8508 123.957 3.8508C123.774 3.8508 123.591 3.8508 123.408 3.8508C123.226 3.83938 123.037 3.83367 122.843 3.83367C122.489 3.83367 122.14 3.87365 121.798 3.95361C121.455 4.03357 121.124 4.07355 120.804 4.07355C120.77 4.07355 120.753 4.06784 120.753 4.05641C120.753 4.03357 120.793 4.00501 120.873 3.97074C120.952 3.92505 120.992 3.89078 120.992 3.86794C120.992 3.82225 120.952 3.7994 120.873 3.7994C120.804 3.7994 120.758 3.7994 120.735 3.7994C120.644 3.7994 120.564 3.84509 120.496 3.93647C120.438 4.02786 120.347 4.09068 120.221 4.12495C120.05 4.17064 119.867 4.19348 119.673 4.19348C119.479 4.19348 119.29 4.19348 119.108 4.19348C118.993 4.19348 118.828 4.18777 118.611 4.17635C118.394 4.16493 118.177 4.14208 117.96 4.10781C117.743 4.06212 117.543 3.9993 117.36 3.91934C117.189 3.82796 117.092 3.70231 117.069 3.54239C116.943 3.57666 116.857 3.63949 116.812 3.73087C116.777 3.81083 116.743 3.8965 116.709 3.98788C116.686 4.07926 116.646 4.16493 116.589 4.24489C116.532 4.31342 116.418 4.3534 116.246 4.36482C115.927 4.38767 115.721 4.49047 115.63 4.67324C115.538 4.856 115.492 5.06161 115.492 5.29006C115.492 5.41571 115.498 5.54136 115.51 5.66701C115.521 5.79266 115.527 5.91831 115.527 6.04396C115.527 6.50086 115.515 6.95777 115.492 7.41468C115.481 7.86016 115.475 8.31136 115.475 8.76826C115.475 8.96245 115.475 9.22517 115.475 9.55643C115.487 9.87626 115.51 10.1961 115.544 10.5159C115.59 10.8243 115.652 11.1042 115.732 11.3555C115.812 11.5954 115.927 11.7324 116.075 11.7667C116.166 11.7896 116.263 11.8067 116.366 11.8181C116.469 11.8181 116.572 11.8181 116.675 11.8181C117.074 11.8181 117.463 11.7724 117.84 11.681C118.228 11.5897 118.622 11.544 119.022 11.544C119.182 11.544 119.33 11.5668 119.468 11.6125C119.616 11.6582 119.765 11.681 119.913 11.681C120.13 11.681 120.296 11.5782 120.41 11.3726C120.536 11.1556 120.621 10.91 120.667 10.6359C120.724 10.3503 120.758 10.0647 120.77 9.77917C120.781 9.4936 120.787 9.28228 120.787 9.14521C120.787 8.85964 120.775 8.57979 120.753 8.30564C120.741 8.02008 120.735 7.73451 120.735 7.44894H120.838C121.124 7.44894 121.392 7.49464 121.644 7.58602C121.895 7.6774 122.158 7.72309 122.432 7.72309C122.546 7.72309 122.632 7.71738 122.689 7.70595C122.689 7.93441 122.729 8.16286 122.809 8.39131C122.889 8.61977 122.929 8.85393 122.929 9.09381C122.929 9.3908 122.769 9.57927 122.449 9.65923C122.54 9.81915 122.614 9.97907 122.672 10.139C122.729 10.2989 122.757 10.4645 122.757 10.6359C122.757 10.7615 122.746 10.8872 122.723 11.0128C122.7 11.127 122.689 11.247 122.689 11.3726C122.689 11.4869 122.723 11.5782 122.792 11.6468C122.871 11.7039 122.911 11.7724 122.911 11.8524C122.911 11.9895 122.854 12.1608 122.74 12.3664C122.637 12.572 122.586 12.7833 122.586 13.0004C122.586 13.2517 122.609 13.5144 122.654 13.7885C122.7 14.0627 122.752 14.3482 122.809 14.6452C122.866 14.9422 122.917 15.2449 122.963 15.5533C123.009 15.8503 123.031 16.153 123.031 16.4614C123.031 16.6442 123.02 16.8327 122.997 17.0269C122.986 17.221 122.946 17.4095 122.877 17.5923C122.82 17.7636 122.734 17.9235 122.62 18.072C122.517 18.2205 122.38 18.3462 122.209 18.449C121.992 18.4261 121.809 18.3633 121.661 18.2605C121.512 18.1463 121.387 18.0149 121.284 17.8664C121.192 17.7065 121.118 17.5352 121.061 17.3524C121.015 17.1582 120.981 16.964 120.958 16.7698C120.913 16.4729 120.89 16.1987 120.89 15.9474C120.89 15.6961 120.833 15.4848 120.718 15.3135C120.616 15.1307 120.41 14.9879 120.101 14.8851C119.805 14.7823 119.336 14.7309 118.697 14.7309C118.514 14.7309 118.251 14.748 117.908 14.7823C117.577 14.8166 117.246 14.8794 116.915 14.9708C116.583 15.0507 116.292 15.1707 116.041 15.3306C115.801 15.4905 115.681 15.6904 115.681 15.9303C115.681 16.0673 115.692 16.2044 115.715 16.3415C115.749 16.4671 115.767 16.5985 115.767 16.7356C115.767 16.8498 115.761 16.964 115.749 17.0783C115.738 17.1925 115.732 17.3124 115.732 17.4381C115.732 17.7465 115.749 18.0549 115.784 18.3633C115.818 18.6603 115.835 18.963 115.835 19.2714C115.835 19.6027 115.789 19.9282 115.698 20.248C115.618 20.5679 115.578 20.8934 115.578 21.2247C115.578 21.5902 115.664 21.8815 115.835 22.0985C116.018 22.3041 116.246 22.464 116.52 22.5783C116.795 22.6811 117.092 22.7496 117.411 22.7839C117.731 22.8181 118.028 22.8353 118.302 22.8353C118.851 22.8353 119.399 22.801 119.947 22.7325C120.496 22.6639 121.044 22.6297 121.592 22.6297C121.935 22.6297 122.278 22.6468 122.62 22.6811C122.963 22.7153 123.306 22.7325 123.648 22.7325C123.911 22.7325 124.202 22.7268 124.522 22.7153C124.842 22.6925 125.145 22.6354 125.43 22.544C125.727 22.4526 125.978 22.3213 126.184 22.1499C126.401 21.9672 126.538 21.7101 126.595 21.3789C126.607 21.2875 126.635 21.2247 126.681 21.1904C126.738 21.1447 126.795 21.1105 126.852 21.0876C126.921 21.0533 126.978 21.0191 127.024 20.9848C127.069 20.9505 127.092 20.8934 127.092 20.8135C127.092 20.7221 127.058 20.6193 126.989 20.5051C126.921 20.3794 126.875 20.2652 126.852 20.1624C126.807 19.9453 126.778 19.7283 126.767 19.5113C126.767 19.2828 126.767 19.0601 126.767 18.8431C126.767 18.5004 126.818 18.2034 126.921 17.9521C127.035 17.6894 127.092 17.4038 127.092 17.0954C127.092 17.004 127.086 16.9183 127.075 16.8384C127.075 16.7584 127.075 16.6727 127.075 16.5814C127.075 16.5128 127.126 16.4443 127.229 16.3758C127.332 16.3072 127.452 16.2501 127.589 16.2044C127.726 16.1473 127.863 16.1016 128 16.0673C128.137 16.0331 128.24 16.0159 128.309 16.0159C128.594 16.0159 128.828 16.1187 129.011 16.3244C129.194 16.5185 129.331 16.7584 129.422 17.044C129.525 17.3296 129.594 17.6265 129.628 17.935C129.662 18.2434 129.679 18.5061 129.679 18.7231C129.679 19.0772 129.651 19.477 129.594 19.9225C129.537 20.368 129.457 20.8249 129.354 21.2932C129.262 21.7615 129.154 22.2185 129.028 22.6639C128.903 23.098 128.777 23.4807 128.651 23.8119C128.583 23.9718 128.514 24.0918 128.446 24.1717C128.389 24.2517 128.32 24.3202 128.24 24.3773C128.172 24.423 128.092 24.4744 128 24.5315C127.92 24.5772 127.829 24.6572 127.726 24.7714C127.635 24.8742 127.458 24.9428 127.195 24.977C126.944 25.0113 126.675 25.0284 126.39 25.0284C126.173 25.0284 125.967 25.0227 125.773 25.0113C125.579 24.9999 125.43 24.9942 125.327 24.9942C124.95 24.9942 124.642 25.0399 124.402 25.1312C124.174 25.2226 123.957 25.2683 123.751 25.2683C123.603 25.2683 123.505 25.2397 123.46 25.1826C123.414 25.1141 123.346 25.0798 123.254 25.0798C123.174 25.0798 123.1 25.1141 123.031 25.1826C122.963 25.2512 122.86 25.2854 122.723 25.2854C122.586 25.2854 122.443 25.2854 122.295 25.2854C122.158 25.274 122.015 25.2683 121.866 25.2683C121.01 25.2683 120.159 25.2911 119.313 25.3368C118.468 25.394 117.617 25.4339 116.76 25.4568C116.178 25.4796 115.601 25.5482 115.03 25.6624C114.459 25.7766 113.882 25.8337 113.299 25.8337C113.094 25.8337 112.86 25.8109 112.597 25.7652C112.334 25.7309 112.083 25.6624 111.843 25.5596C111.614 25.4568 111.42 25.3197 111.26 25.1484C111.1 24.9656 111.02 24.7429 111.02 24.4801C111.02 24.2288 111.112 23.989 111.295 23.7605C111.477 23.5321 111.694 23.3207 111.946 23.1266C112.208 22.9324 112.477 22.7553 112.751 22.5954C113.025 22.4241 113.248 22.2641 113.419 22.1156C113.408 22.0243 113.402 21.9386 113.402 21.8586C113.402 21.7787 113.402 21.6987 113.402 21.6188C113.402 21.4474 113.402 21.2761 113.402 21.1047C113.414 20.9334 113.448 20.7621 113.505 20.5907C113.528 20.4879 113.585 20.368 113.676 20.2309C113.779 20.0824 113.83 19.9568 113.83 19.854C113.83 19.774 113.813 19.6998 113.779 19.6312C113.756 19.5627 113.733 19.4884 113.711 19.4085C113.585 19.1001 113.493 18.8259 113.436 18.586C113.391 18.3462 113.368 18.0549 113.368 17.7122C113.368 17.5066 113.368 17.3296 113.368 17.1811C113.379 17.0211 113.391 16.8726 113.402 16.7356C113.425 16.5871 113.454 16.4386 113.488 16.2901C113.533 16.1302 113.591 15.9531 113.659 15.7589C113.613 15.679 113.562 15.559 113.505 15.3991C113.448 15.2392 113.419 15.1136 113.419 15.0222L113.659 12.5891C113.648 12.5549 113.642 12.4978 113.642 12.4178C113.642 12.315 113.659 12.2122 113.693 12.1094C113.728 12.0066 113.745 11.8981 113.745 11.7838C113.745 11.5211 113.699 11.2641 113.608 11.0128C113.516 10.7501 113.471 10.4874 113.471 10.2247C113.471 10.1333 113.493 10.0248 113.539 9.89911C113.585 9.77346 113.631 9.63639 113.676 9.48789C113.733 9.3394 113.785 9.17948 113.83 9.00814C113.876 8.82538 113.899 8.63119 113.899 8.42558C113.899 8.26567 113.859 8.12859 113.779 8.01437C113.711 7.90014 113.676 7.76878 113.676 7.62028C113.676 7.48321 113.711 7.34614 113.779 7.20907C113.848 7.072 113.882 6.9235 113.882 6.76358C113.882 6.53513 113.836 6.3181 113.745 6.11249C113.665 5.89546 113.579 5.68985 113.488 5.49567C113.351 5.2101 113.242 4.98165 113.162 4.81031C113.094 4.62755 113.008 4.48476 112.905 4.38196C112.802 4.26773 112.66 4.18777 112.477 4.14208C112.306 4.08497 112.054 4.04499 111.723 4.02214C111.563 4.01072 111.409 3.96503 111.26 3.88507C111.123 3.79369 110.998 3.67946 110.883 3.54239C110.781 3.40532 110.695 3.25683 110.626 3.09691C110.558 2.93699 110.524 2.78279 110.524 2.63429C110.524 2.42868 110.615 2.25734 110.798 2.12027C110.98 1.97178 111.215 1.85755 111.5 1.77759C111.786 1.68621 112.106 1.61767 112.46 1.57198C112.814 1.51487 113.157 1.47489 113.488 1.45204C113.83 1.41778 114.139 1.39493 114.413 1.38351C114.699 1.37209 114.916 1.35495 115.064 1.33211C115.293 1.29784 115.515 1.27499 115.732 1.26357C115.949 1.25215 116.172 1.24644 116.401 1.24644C116.846 1.24644 117.292 1.26357 117.737 1.29784C118.194 1.32068 118.645 1.33211 119.091 1.33211C119.57 1.33211 120.039 1.28642 120.496 1.19503C120.964 1.10365 121.438 1.05796 121.918 1.05796C122.352 1.05796 122.78 1.10936 123.203 1.21217C123.625 1.30355 124.042 1.34924 124.454 1.34924C124.853 1.34924 125.247 1.30355 125.636 1.21217C126.024 1.10936 126.418 1.05796 126.818 1.05796C126.989 1.05796 127.161 1.0751 127.332 1.10936C127.583 1.38351 127.812 1.61196 128.017 1.79472C128.234 1.97749 128.417 2.16596 128.566 2.36015C128.726 2.54291 128.851 2.75994 128.943 3.01124C129.045 3.26254 129.114 3.59379 129.148 4.00501C129.16 4.15351 129.165 4.33627 129.165 4.5533C129.165 4.75891 129.171 4.96451 129.183 5.17012C129.194 5.36431 129.222 5.54136 129.268 5.70128C129.325 5.86119 129.411 5.95829 129.525 5.99255C129.525 6.15247 129.445 6.23243 129.285 6.23243C129.297 6.39235 129.331 6.55798 129.388 6.72932C129.445 6.88923 129.502 7.05486 129.559 7.2262C129.617 7.38612 129.668 7.55175 129.714 7.72309C129.759 7.88301 129.782 8.03721 129.782 8.18571ZM114.944 12.4007C114.876 12.4007 114.813 12.4121 114.756 12.4349C114.699 12.4578 114.659 12.5092 114.636 12.5891C115.07 12.8404 115.412 13.0803 115.664 13.3088C115.927 13.5258 116.126 13.7029 116.263 13.8399C116.412 13.977 116.52 14.057 116.589 14.0798C116.658 14.0912 116.726 14.017 116.795 13.8571C116.886 13.6515 116.869 13.4573 116.743 13.2745C116.629 13.0917 116.463 12.9375 116.246 12.8119C116.041 12.6862 115.812 12.5891 115.561 12.5206C115.321 12.4407 115.116 12.4007 114.944 12.4007Z" fill="#B24D4F"/>
<path d="M153.479 22.5783C153.479 22.6811 153.473 22.8181 153.461 22.9895C153.45 23.1608 153.393 23.275 153.29 23.3322C153.176 23.3893 153.102 23.4864 153.067 23.6234C153.044 23.7605 153.033 23.8976 153.033 24.0347C153.033 24.1717 153.027 24.2974 153.016 24.4116C153.004 24.5144 152.959 24.5658 152.879 24.5658C152.822 24.5658 152.776 24.5544 152.742 24.5315C152.707 24.4973 152.662 24.4801 152.605 24.4801C152.548 24.4801 152.49 24.5087 152.433 24.5658C152.376 24.6229 152.348 24.68 152.348 24.7372C152.348 24.7943 152.365 24.84 152.399 24.8742C152.445 24.8971 152.468 24.937 152.468 24.9942C152.468 25.0399 152.382 25.097 152.211 25.1655C152.039 25.2226 151.845 25.2797 151.628 25.3368C151.411 25.4054 151.2 25.4568 150.994 25.491C150.788 25.5367 150.651 25.5596 150.583 25.5596C150.172 25.5596 149.76 25.4853 149.349 25.3368C148.938 25.1883 148.538 25.0513 148.15 24.9256C147.682 24.7657 147.333 24.503 147.105 24.1375C146.888 23.7719 146.728 23.3607 146.625 22.9038C146.522 22.4469 146.442 21.9786 146.385 21.4988C146.339 21.0191 146.248 20.5907 146.111 20.2138C146.054 20.0424 146.025 19.8997 146.025 19.7854C146.025 19.6712 146.037 19.5798 146.06 19.5113C146.094 19.4313 146.128 19.3685 146.162 19.3228C146.208 19.2657 146.242 19.22 146.265 19.1857C146.299 19.14 146.317 19.0944 146.317 19.0487C146.317 18.9116 146.277 18.7745 146.197 18.6374C146.117 18.5004 146.077 18.3176 146.077 18.0892C146.077 17.9635 146.077 17.8436 146.077 17.7293C146.088 17.6037 146.094 17.478 146.094 17.3524C146.094 16.9298 146.054 16.5814 145.974 16.3072C145.905 16.0331 145.802 15.7818 145.665 15.5533C145.54 15.3249 145.386 15.0964 145.203 14.868C145.031 14.6395 144.837 14.3654 144.62 14.0455C144.517 14.0684 144.409 14.0798 144.295 14.0798C144.192 14.0798 144.083 14.0798 143.969 14.0798C143.741 14.0798 143.512 14.0684 143.284 14.0455C143.067 14.0227 142.844 14.0113 142.616 14.0113C142.376 14.0113 142.13 14.0341 141.879 14.0798C141.639 14.1255 141.393 14.1483 141.142 14.1483C140.982 14.1483 140.822 14.1255 140.662 14.0798C140.502 14.0227 140.342 13.9941 140.183 13.9941C139.988 13.9941 139.794 14.0341 139.6 14.1141C139.406 14.1826 139.229 14.2854 139.069 14.4225C138.909 14.5481 138.778 14.7023 138.675 14.8851C138.583 15.0564 138.538 15.2449 138.538 15.4505V15.9988C138.538 16.9926 138.452 17.9692 138.281 18.9287C138.258 19.0772 138.235 19.2257 138.212 19.3742C138.189 19.5113 138.178 19.6598 138.178 19.8197C138.178 20.288 138.269 20.665 138.452 20.9505C138.646 21.2361 138.88 21.4703 139.155 21.653C139.429 21.8244 139.731 21.9672 140.063 22.0814C140.394 22.1956 140.697 22.3155 140.971 22.4412C141.245 22.5554 141.473 22.6982 141.656 22.8695C141.85 23.0409 141.947 23.275 141.947 23.572C141.947 23.6863 141.925 23.7948 141.879 23.8976C141.845 23.989 141.799 24.0803 141.742 24.1717C141.593 24.4116 141.45 24.5944 141.313 24.72C141.188 24.8342 141.045 24.9256 140.885 24.9942C140.737 25.0627 140.571 25.1141 140.388 25.1484C140.205 25.1826 139.988 25.2283 139.737 25.2854C139.543 25.3311 139.337 25.3597 139.12 25.3711C138.915 25.394 138.709 25.4054 138.503 25.4054C138.184 25.4054 137.869 25.3654 137.561 25.2854C137.253 25.2169 136.939 25.1826 136.619 25.1826C136.379 25.1826 136.133 25.2055 135.882 25.2512C135.642 25.2854 135.402 25.3254 135.162 25.3711C134.922 25.4282 134.683 25.4739 134.443 25.5082C134.203 25.5539 133.963 25.5767 133.723 25.5767C133.563 25.5767 133.386 25.5596 133.192 25.5253C133.009 25.491 132.838 25.4282 132.678 25.3368C132.518 25.2569 132.381 25.1484 132.267 25.0113C132.164 24.8742 132.112 24.7086 132.112 24.5144C132.112 24.3545 132.152 24.2117 132.232 24.0861C132.312 23.9604 132.415 23.8519 132.541 23.7605C132.678 23.6691 132.821 23.5949 132.969 23.5378C133.118 23.4807 133.26 23.4464 133.397 23.435C133.523 23.4235 133.626 23.4178 133.706 23.4178C133.797 23.4178 133.872 23.4064 133.929 23.3836C133.997 23.3607 134.066 23.3265 134.134 23.2808C134.203 23.2351 134.283 23.1665 134.374 23.0752C134.431 23.018 134.483 22.9723 134.528 22.9381C134.585 22.9038 134.654 22.8867 134.734 22.8867C134.791 22.8867 134.848 22.8924 134.905 22.9038C134.962 22.9152 135.019 22.9209 135.077 22.9209C135.168 22.9209 135.259 22.8924 135.351 22.8353C135.591 22.6982 135.762 22.5212 135.865 22.3041C135.968 22.0871 136.036 21.8529 136.07 21.6016C136.105 21.3389 136.122 21.0705 136.122 20.7963C136.133 20.5222 136.167 20.2709 136.225 20.0424C136.282 19.7911 136.31 19.557 136.31 19.3399C136.31 18.9401 136.259 18.5461 136.156 18.1577C136.065 17.7693 136.019 17.3752 136.019 16.9754C136.019 16.4957 136.053 16.0159 136.122 15.5362C136.19 15.0564 136.225 14.5767 136.225 14.0969C136.225 13.9713 136.219 13.8513 136.207 13.7371C136.207 13.6229 136.207 13.503 136.207 13.3773C136.207 12.5549 136.259 11.7439 136.362 10.9443C136.464 10.1447 136.516 9.33368 136.516 8.51125C136.516 8.2828 136.51 8.06006 136.499 7.84303C136.487 7.626 136.47 7.40325 136.447 7.1748C136.424 6.99204 136.402 6.7693 136.379 6.50657C136.356 6.23243 136.322 5.95258 136.276 5.66701C136.23 5.38144 136.167 5.09588 136.088 4.81031C136.019 4.52474 135.916 4.27344 135.779 4.05641C135.653 3.82796 135.494 3.6452 135.299 3.50812C135.117 3.35963 134.894 3.28538 134.631 3.28538C134.574 3.28538 134.511 3.29109 134.443 3.30252C134.386 3.31394 134.328 3.31965 134.271 3.31965C134.146 3.31965 134.043 3.28538 133.963 3.21685C133.883 3.13689 133.82 3.04551 133.774 2.9427C133.729 2.82848 133.694 2.70854 133.672 2.58289C133.66 2.45724 133.654 2.34872 133.654 2.25734C133.654 1.86897 133.752 1.58341 133.946 1.40064C134.151 1.21788 134.397 1.09223 134.683 1.02369C134.98 0.955159 135.294 0.926602 135.625 0.938025C135.968 0.938025 136.27 0.926602 136.533 0.903757C136.83 0.880911 137.121 0.829509 137.407 0.749551C137.704 0.669592 138.007 0.629613 138.315 0.629613C138.76 0.629613 139.2 0.686726 139.634 0.800953C140.068 0.915179 140.508 0.972293 140.954 0.972293C141.319 0.972293 141.673 0.943736 142.016 0.886623C142.359 0.818087 142.701 0.726705 143.044 0.612479C143.215 0.555365 143.369 0.526809 143.507 0.526809C143.952 0.526809 144.392 0.583922 144.826 0.698149C145.26 0.812375 145.694 0.880911 146.128 0.903757C146.425 0.926602 146.733 0.983715 147.053 1.0751C147.373 1.15506 147.67 1.27499 147.944 1.43491C148.23 1.58341 148.475 1.77759 148.681 2.01747C148.887 2.25734 149.018 2.5372 149.075 2.85703C149.109 3.05122 149.189 3.23969 149.315 3.42245C149.441 3.59379 149.572 3.75371 149.709 3.90221C149.858 4.03928 149.983 4.17064 150.086 4.29629C150.2 4.41052 150.257 4.50761 150.257 4.58757C150.257 4.66753 150.217 4.73035 150.137 4.77604C150.069 4.81031 150.035 4.87313 150.035 4.96451C150.035 5.02163 150.069 5.08445 150.137 5.15299C150.217 5.22152 150.303 5.30148 150.394 5.39286C150.486 5.48425 150.566 5.58705 150.634 5.70128C150.714 5.80408 150.754 5.91831 150.754 6.04396C150.754 6.2153 150.697 6.3695 150.583 6.50657C150.48 6.63222 150.429 6.78072 150.429 6.95206L150.463 7.00346L150.703 6.93492L150.737 6.96919C150.783 7.15196 150.8 7.34614 150.788 7.55175C150.788 7.74593 150.788 7.92299 150.788 8.0829C150.788 8.29993 150.783 8.53981 150.771 8.80253C150.76 9.06525 150.731 9.32226 150.686 9.57356C150.64 9.82486 150.571 10.059 150.48 10.2761C150.389 10.4931 150.257 10.6644 150.086 10.7901C149.983 10.87 149.875 10.9329 149.76 10.9785C149.658 11.0128 149.555 11.0585 149.452 11.1156C149.349 11.1613 149.258 11.2241 149.178 11.3041C149.098 11.3841 149.035 11.4926 148.989 11.6296C148.932 11.8238 148.835 12.0066 148.698 12.1779C148.561 12.3493 148.418 12.5206 148.27 12.6919C148.133 12.8519 148.007 13.0175 147.893 13.1888C147.79 13.3602 147.739 13.5486 147.739 13.7543C147.739 14.0855 147.813 14.3939 147.961 14.6795C148.121 14.9651 148.264 15.2563 148.39 15.5533C148.515 15.8617 148.607 16.1759 148.664 16.4957C148.721 16.8041 148.761 17.1182 148.784 17.4381C148.818 17.7579 148.841 18.0777 148.852 18.3976C148.875 18.7174 148.909 19.0372 148.955 19.3571C148.978 19.4941 149.029 19.7226 149.109 20.0424C149.201 20.3508 149.309 20.665 149.435 20.9848C149.561 21.3046 149.703 21.5845 149.863 21.8244C150.023 22.0642 150.189 22.1842 150.36 22.1842C150.509 22.1842 150.629 22.1042 150.72 21.9443C150.811 21.7844 150.897 21.6016 150.977 21.396C151.068 21.1904 151.165 20.9905 151.268 20.7963C151.382 20.6021 151.531 20.4708 151.714 20.4022C152.068 20.4365 152.359 20.5051 152.588 20.6079C152.827 20.7107 153.01 20.8534 153.136 21.0362C153.261 21.2075 153.347 21.4246 153.393 21.6873C153.45 21.9386 153.479 22.2356 153.479 22.5783ZM148.355 6.81499C148.355 6.65507 148.321 6.47231 148.253 6.2667C148.184 6.04967 148.098 5.83264 147.996 5.61561C147.893 5.39858 147.779 5.19297 147.653 4.99878C147.539 4.8046 147.425 4.64468 147.31 4.51903C147.07 4.51903 146.91 4.5019 146.831 4.46763C146.751 4.43336 146.699 4.39338 146.676 4.34769C146.653 4.29058 146.625 4.22775 146.591 4.15922C146.568 4.09068 146.488 4.02214 146.351 3.95361C145.951 3.75942 145.591 3.61093 145.271 3.50812C144.952 3.40532 144.569 3.35392 144.123 3.35392C143.998 3.35392 143.872 3.38819 143.746 3.45672C143.632 3.52526 143.529 3.55953 143.438 3.55953C143.175 3.55953 142.918 3.53097 142.667 3.47386C142.416 3.40532 142.159 3.37105 141.896 3.37105C141.519 3.37105 141.131 3.41674 140.731 3.50812C140.468 3.57666 140.205 3.63949 139.943 3.6966C139.68 3.75371 139.446 3.83938 139.24 3.95361C139.035 4.06784 138.863 4.22204 138.726 4.41623C138.601 4.61041 138.538 4.87884 138.538 5.22152C138.538 5.57563 138.572 5.92402 138.64 6.2667C138.72 6.60938 138.76 6.95777 138.76 7.31187C138.76 7.48321 138.732 7.64884 138.675 7.80876C138.629 7.96868 138.578 8.12859 138.521 8.28851C138.463 8.43701 138.406 8.59121 138.349 8.75113C138.304 8.91105 138.281 9.07667 138.281 9.24801C138.281 9.45362 138.298 9.66494 138.332 9.88197C138.378 10.0876 138.452 10.2761 138.555 10.4474C138.658 10.6073 138.789 10.7387 138.949 10.8415C139.12 10.9443 139.332 10.9957 139.583 10.9957C139.823 10.9957 140.051 10.95 140.268 10.8586C140.485 10.7558 140.714 10.7044 140.954 10.7044C141.079 10.7044 141.199 10.7387 141.313 10.8072C141.428 10.8643 141.542 10.9271 141.656 10.9957C141.77 11.0642 141.89 11.1328 142.016 11.2013C142.142 11.2584 142.279 11.287 142.427 11.287C142.541 11.287 142.65 11.2755 142.753 11.2527C142.855 11.2184 142.953 11.1784 143.044 11.1328C143.478 10.9386 143.935 10.7672 144.415 10.6187C144.906 10.4588 145.391 10.3789 145.871 10.3789C145.997 10.3789 146.145 10.3103 146.317 10.1733C146.488 10.0248 146.665 9.84199 146.848 9.62496C147.03 9.39651 147.213 9.15092 147.396 8.8882C147.579 8.61406 147.739 8.34562 147.876 8.0829C148.024 7.80876 148.138 7.56317 148.218 7.34614C148.31 7.11769 148.355 6.94064 148.355 6.81499Z" fill="#B24D4F"/>
<path d="M173.114 16.7356C173.114 17.3181 173.074 17.8893 172.994 18.449C172.926 19.0087 172.874 19.5798 172.84 20.1624C172.76 20.0824 172.669 20.0196 172.566 19.9739C172.474 19.9168 172.377 19.8882 172.275 19.8882C172.149 19.8882 172.029 19.9282 171.915 20.0082C171.8 20.0881 171.743 20.1909 171.743 20.3166C171.743 20.4537 171.806 20.545 171.932 20.5907C172.069 20.6364 172.206 20.6593 172.343 20.6593C172.457 20.6593 172.537 20.6535 172.583 20.6421C172.583 20.7792 172.543 20.922 172.463 21.0705C172.394 21.2075 172.303 21.3446 172.189 21.4817C172.086 21.6188 171.972 21.7501 171.846 21.8758C171.732 21.99 171.629 22.0928 171.538 22.1842C171.469 22.2527 171.395 22.3498 171.315 22.4755C171.235 22.6011 171.144 22.7268 171.041 22.8524C170.949 22.9666 170.852 23.0694 170.75 23.1608C170.647 23.2408 170.544 23.2808 170.441 23.2808C170.327 23.2808 170.236 23.2522 170.167 23.1951C170.099 23.1266 170.019 23.0923 169.927 23.0923C169.802 23.0923 169.722 23.1608 169.687 23.2979C169.664 23.4235 169.653 23.5492 169.653 23.6748V23.8805C169.653 23.9376 169.533 24.0118 169.293 24.1032C169.053 24.1946 168.762 24.2974 168.419 24.4116C168.088 24.5144 167.74 24.6229 167.374 24.7372C167.02 24.84 166.723 24.9428 166.483 25.0456C166.015 25.2397 165.541 25.3997 165.061 25.5253C164.581 25.651 164.084 25.7138 163.57 25.7138C163.194 25.7138 162.828 25.6624 162.474 25.5596C162.131 25.4682 161.783 25.3654 161.429 25.2512C161.086 25.1255 160.738 25.017 160.384 24.9256C160.041 24.8228 159.681 24.7714 159.304 24.7714C159.156 24.7714 158.961 24.7943 158.722 24.84C158.482 24.8856 158.299 24.9542 158.173 25.0456C158.116 25.0913 158.059 25.1712 158.002 25.2854C157.945 25.4111 157.876 25.4739 157.796 25.4739C157.739 25.4739 157.659 25.4511 157.556 25.4054C157.454 25.3597 157.379 25.3254 157.334 25.3026C157.071 25.1655 156.848 24.9884 156.665 24.7714C156.483 24.543 156.328 24.2974 156.203 24.0347C156.077 23.7719 155.986 23.4978 155.929 23.2122C155.872 22.9152 155.843 22.6297 155.843 22.3555C155.843 22.1613 155.86 21.9729 155.894 21.7901C155.94 21.5959 155.963 21.4017 155.963 21.2075C155.963 20.9334 155.929 20.665 155.86 20.4022C155.803 20.1395 155.774 19.8711 155.774 19.597C155.774 19.4028 155.803 19.2086 155.86 19.0144C155.929 18.8202 155.963 18.626 155.963 18.4318C155.963 18.2833 155.929 18.1463 155.86 18.0206C155.792 17.8836 155.757 17.7408 155.757 17.5923C155.757 17.4895 155.792 17.4038 155.86 17.3353C155.94 17.2667 155.98 17.1868 155.98 17.0954C155.98 16.9583 155.974 16.8212 155.963 16.6842C155.952 16.5471 155.946 16.41 155.946 16.273C155.946 16.2044 155.946 16.1073 155.946 15.9817C155.957 15.8446 155.974 15.7132 155.997 15.5876C156.02 15.4619 156.06 15.3534 156.117 15.262C156.174 15.1707 156.254 15.125 156.357 15.125C156.563 15.125 156.768 15.2563 156.974 15.5191C157.191 15.7704 157.385 16.0673 157.556 16.41C157.739 16.7527 157.888 17.0954 158.002 17.4381C158.116 17.7807 158.173 18.0378 158.173 18.2091C158.173 18.2662 158.15 18.3233 158.105 18.3804C158.059 18.4261 158.002 18.449 157.933 18.449C157.979 18.5289 158.03 18.6489 158.088 18.8088C158.145 18.9687 158.173 19.0944 158.173 19.1857C158.173 19.3228 158.15 19.4542 158.105 19.5798C158.07 19.7055 158.053 19.8368 158.053 19.9739C158.053 20.0881 158.076 20.1966 158.122 20.2994C158.179 20.4022 158.236 20.4993 158.293 20.5907C158.385 20.7278 158.465 20.8306 158.533 20.8991C158.602 20.9677 158.676 21.0191 158.756 21.0533C158.836 21.0762 158.921 21.0933 159.013 21.1047C159.116 21.1162 159.247 21.1276 159.407 21.139C159.635 21.4703 159.892 21.7787 160.178 22.0642C160.463 22.3498 160.772 22.6068 161.103 22.8353C161.617 22.9495 162.125 23.0409 162.628 23.1094C163.131 23.178 163.639 23.2122 164.153 23.2122C164.576 23.2122 164.941 23.1665 165.25 23.0752C165.569 22.9838 165.861 22.8638 166.123 22.7153C166.398 22.5668 166.66 22.4012 166.912 22.2185C167.163 22.0243 167.426 21.8244 167.7 21.6188C167.894 21.4817 168.1 21.3503 168.317 21.2247C168.534 21.099 168.745 20.9677 168.951 20.8306C169.156 20.6935 169.35 20.545 169.533 20.3851C169.716 20.2138 169.87 20.0196 169.996 19.8026C170.076 19.6655 170.19 19.5284 170.338 19.3913C170.498 19.2428 170.578 19.0829 170.578 18.9116C170.578 18.8431 170.573 18.7917 170.561 18.7574C170.515 18.3919 170.481 18.0378 170.458 17.6951C170.447 17.341 170.43 16.9812 170.407 16.6156C170.384 16.273 170.31 16.0159 170.184 15.8446C170.059 15.6618 169.899 15.5133 169.704 15.3991C169.522 15.2735 169.322 15.1535 169.105 15.0393C168.888 14.9251 168.676 14.7652 168.471 14.5596C168.254 14.3425 168.008 14.2055 167.734 14.1483C167.471 14.0912 167.197 14.057 166.912 14.0455C166.626 14.0341 166.34 14.017 166.055 13.9941C165.781 13.9599 165.524 13.8513 165.284 13.6686C165.215 13.6229 165.158 13.6001 165.113 13.6001C165.01 13.6001 164.907 13.6343 164.804 13.7029C164.713 13.76 164.61 13.7885 164.496 13.7885C164.324 13.7885 164.147 13.7657 163.965 13.72C163.793 13.6743 163.622 13.6229 163.451 13.5658C163.279 13.5087 163.108 13.4516 162.936 13.3944C162.765 13.3373 162.594 13.2974 162.422 13.2745C162.194 13.2402 162.006 13.2174 161.857 13.206C161.72 13.1945 161.589 13.1774 161.463 13.1546C161.349 13.1203 161.223 13.0746 161.086 13.0175C160.949 12.949 160.778 12.8462 160.572 12.7091C159.978 12.3207 159.344 12.0351 158.67 11.8524C158.544 11.5325 158.379 11.207 158.173 10.8757C158.048 10.7958 157.922 10.7215 157.796 10.653C157.682 10.573 157.568 10.4874 157.454 10.396C157.385 10.2818 157.294 10.0819 157.179 9.7963C157.077 9.51074 156.974 9.20804 156.871 8.8882C156.768 8.55694 156.677 8.24853 156.597 7.96296C156.528 7.6774 156.494 7.47179 156.494 7.34614C156.494 7.08342 156.523 6.83212 156.58 6.59224C156.637 6.35237 156.768 6.13534 156.974 5.94115C157.008 5.91831 157.048 5.88975 157.094 5.85548C157.151 5.80979 157.179 5.75839 157.179 5.70128C157.179 5.64416 157.134 5.60418 157.042 5.58134C156.962 5.54707 156.922 5.48425 156.922 5.39286C156.922 5.38144 156.928 5.36431 156.94 5.34146C156.951 5.30719 156.957 5.27864 156.957 5.25579C157.037 5.00449 157.157 4.76462 157.317 4.53616C157.476 4.30771 157.659 4.09068 157.865 3.88507C158.07 3.67946 158.282 3.49099 158.499 3.31965C158.727 3.13689 158.944 2.97126 159.15 2.82276C159.298 2.71996 159.424 2.5886 159.527 2.42868C159.641 2.26877 159.761 2.15454 159.887 2.086C159.967 2.086 160.047 2.086 160.127 2.086C160.206 2.07458 160.286 2.06887 160.366 2.06887C160.458 2.06887 160.538 2.07458 160.606 2.086C160.686 2.086 160.772 2.086 160.863 2.086C160.989 2.04031 161.075 1.98891 161.12 1.9318C161.166 1.86326 161.212 1.80044 161.257 1.74332C161.303 1.68621 161.36 1.64052 161.429 1.60625C161.509 1.57198 161.646 1.55485 161.84 1.55485C161.966 1.55485 162.091 1.56056 162.217 1.57198C162.343 1.57198 162.468 1.57198 162.594 1.57198C163.028 1.57198 163.456 1.56627 163.879 1.55485C164.313 1.54343 164.747 1.53771 165.181 1.53771C165.489 1.53771 165.792 1.54343 166.089 1.55485C166.398 1.55485 166.706 1.57769 167.014 1.62338C167.22 1.64623 167.42 1.69192 167.614 1.76046C167.808 1.81757 168.014 1.84613 168.231 1.84613C168.437 1.84613 168.579 1.80615 168.659 1.72619C168.751 1.64623 168.819 1.56056 168.865 1.46918C168.922 1.3778 168.985 1.29213 169.053 1.21217C169.122 1.13221 169.242 1.09223 169.413 1.09223C169.653 1.09223 169.899 1.15506 170.15 1.2807C170.413 1.40635 170.658 1.50916 170.887 1.58912L170.87 1.65765C170.835 1.76046 170.818 1.87468 170.818 2.00033C170.818 2.19452 170.847 2.3887 170.904 2.58289C170.972 2.76565 171.041 2.94841 171.109 3.13118C171.178 3.31394 171.241 3.4967 171.298 3.67946C171.366 3.86223 171.401 4.05641 171.401 4.26202C171.401 4.38767 171.389 4.50761 171.366 4.62183C171.344 4.72464 171.332 4.83887 171.332 4.96451C171.332 5.19297 171.378 5.3586 171.469 5.4614C171.561 5.55278 171.606 5.63845 171.606 5.71841C171.606 5.80979 171.566 5.88975 171.486 5.95829C171.406 6.0154 171.366 6.10678 171.366 6.23243C171.366 6.52942 171.384 6.82641 171.418 7.1234C171.452 7.40897 171.469 7.70024 171.469 7.99723C171.469 8.10004 171.464 8.25424 171.452 8.45985C171.452 8.66546 171.429 8.87107 171.384 9.07667C171.349 9.27086 171.286 9.4422 171.195 9.59069C171.115 9.73919 170.995 9.81344 170.835 9.81344C170.664 9.81344 170.498 9.75061 170.338 9.62496C170.178 9.48789 170.047 9.35653 169.944 9.23088C169.796 9.07096 169.687 8.89962 169.619 8.71686C169.55 8.52268 169.493 8.32278 169.447 8.11717C169.402 7.91156 169.35 7.71167 169.293 7.51748C169.236 7.31187 169.15 7.1234 169.036 6.95206C168.853 6.68934 168.676 6.42662 168.505 6.16389C168.345 5.88975 168.185 5.61561 168.025 5.34146C167.9 5.13585 167.791 4.99307 167.7 4.91311C167.608 4.83315 167.511 4.78175 167.408 4.75891C167.306 4.72464 167.186 4.7075 167.049 4.7075C166.923 4.7075 166.763 4.69037 166.569 4.6561C166.363 4.62183 166.158 4.57043 165.952 4.5019C165.758 4.43336 165.558 4.37054 165.352 4.31342C165.158 4.24489 164.958 4.18777 164.753 4.14208C164.547 4.08497 164.341 4.05641 164.136 4.05641C163.805 4.05641 163.468 4.10781 163.125 4.21062C162.782 4.31342 162.44 4.44478 162.097 4.6047C161.754 4.7532 161.417 4.91311 161.086 5.08445C160.755 5.24437 160.435 5.38144 160.127 5.49567C159.841 6.10107 159.698 6.75216 159.698 7.44894C159.698 7.95154 159.755 8.36276 159.87 8.68259C159.984 9.00243 160.138 9.27657 160.332 9.50502C160.538 9.72206 160.766 9.91624 161.017 10.0876C161.28 10.2589 161.554 10.4417 161.84 10.6359C162.137 10.8301 162.428 10.9614 162.714 11.03C163.011 11.0871 163.331 11.1156 163.673 11.1156C163.867 11.1156 164.056 11.1099 164.239 11.0985C164.433 11.0871 164.627 11.0814 164.821 11.0814C165.038 11.0814 165.244 11.1099 165.438 11.167C165.632 11.2241 165.821 11.2927 166.003 11.3726C166.198 11.4412 166.392 11.504 166.586 11.5611C166.78 11.6182 166.98 11.6468 167.186 11.6468C167.38 11.6468 167.563 11.6354 167.734 11.6125C167.917 11.5897 168.1 11.5782 168.282 11.5782C168.442 11.5782 168.585 11.6182 168.711 11.6982C168.836 11.7667 168.962 11.8524 169.088 11.9552C169.213 12.0466 169.339 12.1322 169.465 12.2122C169.602 12.2922 169.75 12.3378 169.91 12.3493C170.138 12.4635 170.327 12.5663 170.475 12.6577C170.624 12.7491 170.755 12.8462 170.87 12.949C170.995 13.0518 171.109 13.1774 171.212 13.3259C171.326 13.4744 171.452 13.6572 171.589 13.8742C171.715 14.0912 171.88 14.2797 172.086 14.4396C172.292 14.5995 172.457 14.7937 172.583 15.0222C172.629 15.1021 172.657 15.1992 172.669 15.3135C172.68 15.4163 172.697 15.5191 172.72 15.6219C172.743 15.7132 172.777 15.7989 172.823 15.8789C172.88 15.9474 172.966 15.9874 173.08 15.9988C173.091 16.1245 173.097 16.2501 173.097 16.3758C173.108 16.49 173.114 16.6099 173.114 16.7356Z" fill="#B24D4F"/>
<path d="M9.73624 3.49268L12.838 8.9597L18.996 10.2203L14.755 14.8596L15.4591 21.1057L9.73624 18.506L4.01342 21.1057L4.71747 14.8596L0.476525 10.2203L6.63447 8.9597L9.73624 3.49268Z" fill="#4E6E5F"/>
<path d="M190.264 3.49268L193.365 8.9597L199.523 10.2203L195.282 14.8596L195.986 21.1057L190.264 18.506L184.541 21.1057L185.245 14.8596L181.004 10.2203L187.162 8.9597L190.264 3.49268Z" fill="#4E6E5F"/>
</svg>
